<?xml version="1.0" standalone="no"?>
<svg viewBox="0 0 200 200" xmlns="http://www.w3.org/2000/svg">
  <path fill="#0269A4" d="M15.4,-26.5C26.7,-20.2,47.1,-29.6,61.1,-27.8C75,-26,82.4,-13,74.8,-4.4C67.2,4.2,44.6,8.5,32.6,13.6C20.7,18.8,19.3,24.9,15.6,38.2C11.9,51.5,6,72,1.6,69.3C-2.9,66.6,-5.7,40.7,-12.3,29.1C-18.8,17.5,-29,20.1,-38.4,17.6C-47.9,15.1,-56.5,7.5,-55,0.9C-53.5,-5.8,-41.9,-11.6,-32.1,-13.5C-22.3,-15.3,-14.3,-13.2,-9.3,-23.1C-4.3,-33,-2.1,-54.9,0,-54.9C2.1,-54.8,4.1,-32.8,15.4,-26.5Z" transform="translate(100 100)" />
</svg>
